<?xml version="1.0" encoding="UTF-8" standalone="no"?>
<!DOCTYPE svg PUBLIC "-//W3C//DTD SVG 1.1//EN" "http://www.w3.org/Graphics/SVG/1.1/DTD/svg11.dtd">
<svg width="100%" height="100%" viewBox="0 0 2497 2497" version="1.1" xmlns="http://www.w3.org/2000/svg" xmlns:xlink="http://www.w3.org/1999/xlink" xml:space="preserve" xmlns:serif="http://www.serif.com/" style="fill-rule:evenodd;clip-rule:evenodd;stroke-linejoin:round;stroke-miterlimit:2;">
    <g transform="matrix(1,0,0,1,-17540,0)">
        <g id="Logo-color-sin-fondo" serif:id="Logo color sin fondo" transform="matrix(0.756566,0,0,0.979085,4269.59,0)">
            <rect x="17540.3" y="0" width="3300" height="2550" style="fill:none;"/>
            <g id="Logo" transform="matrix(1.32176,0,0,1.02136,7735.47,-27.2621)">
                <g id="Logo1" serif:id="Logo" transform="matrix(1,0,0,1,-59.9762,52.8599)">
                    <path d="M8352.64,1001.17C8352.64,1001.17 8246.78,895.304 8214.54,863.062C8212.09,860.621 8210.72,857.309 8210.72,853.855C8210.72,850.402 8212.09,847.09 8214.54,844.648C8240.99,818.198 8316.99,742.198 8343.44,715.749C8345.88,713.307 8349.19,711.935 8352.64,711.935C8356.1,711.935 8359.41,713.307 8361.85,715.749C8399.39,753.291 8542.15,896.047 8610.44,964.341C8630.78,984.681 8630.78,1017.66 8610.44,1038C8542.15,1106.29 8399.39,1249.05 8361.85,1286.59C8359.41,1289.03 8356.1,1290.4 8352.64,1290.4C8349.19,1290.4 8345.88,1289.03 8343.44,1286.59C8319.42,1262.57 8254.54,1197.69 8223.01,1166.16C8213.24,1156.4 8213.24,1140.57 8223.01,1130.81C8262.14,1091.67 8352.64,1001.17 8352.64,1001.17ZM9129.95,706.541C9137.15,706.541 9142.98,712.371 9142.98,719.562C9142.98,797.786 9142.98,1204.55 9142.98,1282.78C9142.98,1289.97 9137.15,1295.8 9129.95,1295.8C9092.55,1295.8 8985.07,1295.8 8947.66,1295.8C8940.47,1295.8 8934.64,1289.97 8934.64,1282.78C8934.64,1204.55 8934.64,797.786 8934.64,719.562C8934.64,712.371 8940.47,706.541 8947.66,706.541C8985.07,706.541 9092.55,706.541 9129.95,706.541ZM8641.76,1432.21C8669.28,1427.71 8697.52,1425.37 8726.31,1425.37C8755.1,1425.37 8783.34,1427.71 8810.86,1432.21C8863.69,1440.86 8913.86,1457.46 8960.1,1480.74C8975.05,1488.24 8985.49,1502.47 8988.16,1518.98C8990.83,1535.5 8985.41,1552.29 8973.58,1564.12C8926.73,1610.98 8854.34,1683.37 8799.97,1737.74C8759.29,1778.42 8693.33,1778.42 8652.65,1737.74C8598.28,1683.37 8525.89,1610.98 8479.04,1564.12C8467.21,1552.29 8461.78,1535.5 8464.45,1518.98C8467.12,1502.46 8477.56,1488.24 8492.52,1480.74C8538.76,1457.46 8588.93,1440.86 8641.76,1432.21Z" style="fill:rgb(0,171,224);"/>
                </g>
                <g transform="matrix(1,0,0,1,0.333333,0)">
                    <path d="M7832.67,2108.33L7832.67,1900L7936.83,1900L7936.83,2004.17L8041,2004.17L8041,2108.33L7832.67,2108.33ZM7832.67,650L7832.67,441.667L8041,441.667L8041,545.833L7936.83,545.833L7936.83,650L7832.67,650ZM9395.17,545.833L9291,545.833L9291,441.667L9499.33,441.667L9499.33,650L9395.17,650L9395.17,545.833ZM9499.33,2108.33L9291,2108.33L9291,2004.17L9395.17,2004.17L9395.17,1900L9499.33,1900L9499.33,2108.33Z" style="fill:rgb(254,87,47);"/>
                </g>
            </g>
        </g>
    </g>
</svg>
